<svg width="28" height="28" viewBox="0 0 28 28" fill="none" xmlns="http://www.w3.org/2000/svg">
<path d="M6.64349 8.04786C6.64349 8.48907 6.81876 8.9122 7.13074 9.22419C7.44273 9.53617 7.86587 9.71144 8.30707 9.71144H10.8024M20.7839 12.2068C21.0045 12.2068 21.2161 12.1192 21.3721 11.9632C21.5281 11.8072 21.6157 11.5956 21.6157 11.375V8.87965C21.6157 8.65904 21.5281 8.44747 21.3721 8.29148C21.2161 8.13549 21.0045 8.04786 20.7839 8.04786H18.7045C18.5753 8.04786 18.448 8.01779 18.3325 7.96004C18.217 7.90229 18.1165 7.81845 18.039 7.71514L17.2904 6.71699C17.2129 6.61369 17.1125 6.52984 16.997 6.47209C16.8815 6.41434 16.7541 6.38428 16.625 6.38428H14.9614C14.7408 6.38428 14.5292 6.47191 14.3732 6.6279C14.2172 6.78389 14.1296 6.99546 14.1296 7.21607V11.375C14.1296 11.5956 14.2172 11.8072 14.3732 11.9632C14.5292 12.1192 14.7408 12.2068 14.9614 12.2068H20.7839ZM20.7839 21.3565C21.0045 21.3565 21.2161 21.2689 21.3721 21.1129C21.5281 20.9569 21.6157 20.7453 21.6157 20.5247V18.0293C21.6157 17.8087 21.5281 17.5972 21.3721 17.4412C21.2161 17.2852 21.0045 17.1976 20.7839 17.1976H18.3717C18.2195 17.1956 18.0708 17.1519 17.9418 17.0712C17.8127 16.9905 17.7082 16.876 17.6398 16.7401L17.2904 16.033C17.2255 15.8843 17.1184 15.7577 16.9824 15.669C16.8465 15.5804 16.6875 15.5334 16.5252 15.534H14.9614C14.7408 15.534 14.5292 15.6216 14.3732 15.7776C14.2172 15.9336 14.1296 16.1452 14.1296 16.3658V20.5247C14.1296 20.7453 14.2172 20.9569 14.3732 21.1129C14.5292 21.2689 14.7408 21.3565 14.9614 21.3565H20.7839Z" stroke="white" stroke-width="1.66358" stroke-linecap="round" stroke-linejoin="round"/>
<path d="M6.64349 6.38428V17.1976C6.64349 17.6388 6.81876 18.0619 7.13074 18.3739C7.44273 18.6859 7.86587 18.8611 8.30707 18.8611H10.8024" stroke="white" stroke-width="1.66358" stroke-linecap="round" stroke-linejoin="round"/>
</svg>