<svg width="64" height="64" viewBox="0 0 64 64" fill="none" xmlns="http://www.w3.org/2000/svg">
<path d="M31.2371 28.37V44.4278M52.6474 55.1329C54.067 55.1329 55.4285 54.569 56.4323 53.5652C57.4361 52.5614 58 51.1999 58 49.7803V23.0174C58 21.5978 57.4361 20.2364 56.4323 19.2326C55.4285 18.2288 54.067 17.6649 52.6474 17.6649H31.5047C30.6095 17.6736 29.7264 17.4577 28.9363 17.0369C28.1461 16.6161 27.4741 16.0039 26.9818 15.2562L24.814 12.0446C24.3266 11.3046 23.6631 10.6971 22.883 10.2767C22.103 9.85628 21.2307 9.63613 20.3446 9.63599H9.82676C8.40717 9.63599 7.04572 10.1999 6.04192 11.2037C5.03811 12.2075 4.47418 13.569 4.47418 14.9886V49.7803C4.47418 51.1999 5.03811 52.5614 6.04192 53.5652C7.04572 54.569 8.40717 55.1329 9.82676 55.1329H52.6474Z" stroke="#9C9C9C" stroke-width="4.94541" stroke-linecap="round" stroke-linejoin="round"/>
<path d="M23.2084 36.3992L31.2373 28.3704L39.2662 36.3992" stroke="#9C9C9C" stroke-width="4.94541" stroke-linecap="round" stroke-linejoin="round"/>
</svg>
