<svg width="256" height="256" viewBox="0 0 256 256" fill="none" xmlns="http://www.w3.org/2000/svg">
<path d="M128.52 118.588V156.235M178.716 181.333C182.044 181.333 185.236 180.011 187.589 177.658C189.943 175.304 191.265 172.113 191.265 168.784V106.039C191.265 102.711 189.943 99.5192 187.589 97.1658C185.236 94.8124 182.044 93.4903 178.716 93.4903H129.147C127.048 93.5109 124.978 93.0047 123.125 92.0182C121.273 91.0316 119.697 89.5962 118.543 87.8432L113.461 80.3138C112.318 78.5787 110.763 77.1545 108.934 76.1688C107.105 75.1832 105.06 74.6671 102.982 74.6667H78.3236C74.9953 74.6667 71.8035 75.9889 69.4501 78.3423C67.0967 80.6957 65.7745 83.8876 65.7745 87.2158V168.784C65.7745 172.113 67.0967 175.304 69.4501 177.658C71.8035 180.011 74.9953 181.333 78.3236 181.333H178.716Z" stroke="white" stroke-width="12.5343" stroke-linecap="round" stroke-linejoin="round"/>
<path d="M109.697 137.412L128.52 118.589L147.344 137.412" stroke="white" stroke-width="12.5343" stroke-linecap="round" stroke-linejoin="round"/>
</svg>
