<svg width="64" height="64" viewBox="0 0 64 64" fill="none" xmlns="http://www.w3.org/2000/svg">
<path d="M39.2916 6.87524H16.4166C15.0684 6.87524 13.7754 7.41081 12.8221 8.36412C11.8688 9.31743 11.3333 10.6104 11.3333 11.9586V52.6253C11.3333 53.9735 11.8688 55.2665 12.8221 56.2198C13.7754 57.1731 15.0684 57.7087 16.4166 57.7087H46.9166C48.2648 57.7087 49.5578 57.1731 50.5111 56.2198C51.4644 55.2665 52 53.9735 52 52.6253V19.5836L39.2916 6.87524Z" stroke="#9C9C9C" stroke-width="4.05063" stroke-linecap="round" stroke-linejoin="round"/>
<path d="M36.7496 6.87524V17.0419C36.7496 18.3901 37.2852 19.6831 38.2385 20.6364C39.1918 21.5897 40.4848 22.1253 41.8329 22.1253H51.9996M26.5829 24.6669H21.4996M41.8329 34.8336H21.4996M41.8329 45.0003H21.4996" stroke="#9C9C9C" stroke-width="4.05063" stroke-linecap="round" stroke-linejoin="round"/>
</svg>