<svg width="64" height="64" viewBox="0 0 64 64" fill="none" xmlns="http://www.w3.org/2000/svg">
<path fill-rule="evenodd" clip-rule="evenodd" d="M31.3436 3H31.6564C37.9927 3 42.957 3 46.8318 3.5214C50.7944 4.05377 53.9227 5.16791 56.3788 7.62121C58.8348 10.0773 59.9462 13.2056 60.4786 17.171C61 21.043 61 26.0073 61 32.3436V32.6564C61 38.9927 61 43.957 60.4786 47.8318C59.9462 51.7944 58.8321 54.9227 56.3788 57.3788C53.9227 59.8348 50.7944 60.9462 46.829 61.4786C42.957 62 37.9927 62 31.6564 62H31.3436C25.0073 62 20.043 62 16.1682 61.4786C12.2056 60.9462 9.07726 59.8321 6.62121 57.3788C4.16516 54.9227 3.05377 51.7944 2.5214 47.829C2 43.957 2 38.9927 2 32.6564V32.3436C2 26.0073 2 21.043 2.5214 17.1682C3.05377 13.2056 4.16791 10.0773 6.62121 7.62121C9.07726 5.16516 12.2056 4.05377 16.171 3.5214C20.043 3 25.0073 3 31.3436 3ZM16.7171 7.59926C13.21 8.07126 11.0942 8.97135 9.53279 10.5328C7.9686 12.097 7.07126 14.21 6.59926 17.7198C6.12177 21.2873 6.11628 25.9743 6.11628 32.5C6.11628 39.0257 6.12177 43.7127 6.59926 47.2802C7.07126 50.79 7.97135 52.9058 9.53279 54.47C11.097 56.0314 13.21 56.9287 16.7198 57.4007C20.2873 57.8782 24.9743 57.8837 31.5 57.8837C38.0257 57.8837 42.7127 57.8782 46.2802 57.4007C49.79 56.9287 51.9058 56.0287 53.47 54.4672C55.0314 52.903 55.9287 50.79 56.4007 47.2802C56.8782 43.7127 56.8837 39.0257 56.8837 32.5C56.8837 25.9743 56.8782 21.2873 56.4007 17.7198C55.9287 14.21 55.0287 12.0942 53.4672 10.53C51.903 8.9686 49.79 8.07126 46.2802 7.59926C42.7127 7.12177 38.0257 7.11628 31.5 7.11628C24.9743 7.11628 20.2845 7.12177 16.7171 7.59926ZM30.2102 22.813C30.5957 23.1989 30.8121 23.722 30.8121 24.2674C30.8121 24.8129 30.5957 25.336 30.2102 25.7219L25.4902 30.4419H42.4767C43.0226 30.4419 43.5461 30.6587 43.9321 31.0447C44.318 31.4307 44.5349 31.9541 44.5349 32.5C44.5349 33.0459 44.318 33.5693 43.9321 33.9553C43.5461 34.3413 43.0226 34.5581 42.4767 34.5581H25.4902L30.2102 39.2781C30.4124 39.4666 30.5746 39.6938 30.6871 39.9462C30.7996 40.1987 30.8601 40.4712 30.865 40.7476C30.8699 41.0239 30.819 41.2984 30.7155 41.5547C30.612 41.811 30.4579 42.0438 30.2625 42.2392C30.067 42.4347 29.8342 42.5887 29.578 42.6922C29.3217 42.7958 29.0472 42.8466 28.7708 42.8417C28.4945 42.8368 28.222 42.7764 27.9695 42.6639C27.717 42.5514 27.4898 42.3892 27.3014 42.187L19.0688 33.9544C18.6834 33.5685 18.4669 33.0454 18.4669 32.5C18.4669 31.9546 18.6834 31.4315 19.0688 31.0456L27.3014 22.813C27.6873 22.4276 28.2104 22.2111 28.7558 22.2111C29.3012 22.2111 29.8243 22.4276 30.2102 22.813Z" fill="#9C9C9C"/>
</svg>