<svg width="257" height="257" viewBox="0 0 257 257" fill="none" xmlns="http://www.w3.org/2000/svg">
<path fill-rule="evenodd" clip-rule="evenodd" d="M128.473 49.1636H129.317C146.421 49.1636 159.821 49.1636 170.28 50.571C180.976 52.008 189.421 55.0154 196.05 61.6376C202.68 68.2673 205.68 76.7117 207.117 87.4154C208.524 97.8673 208.524 111.267 208.524 128.371V129.215C208.524 146.319 208.524 159.719 207.117 170.178C205.68 180.875 202.673 189.319 196.05 195.949C189.421 202.578 180.976 205.578 170.273 207.015C159.821 208.423 146.421 208.423 129.317 208.423H128.473C111.369 208.423 97.9688 208.423 87.5096 207.015C76.8133 205.578 68.3688 202.571 61.7392 195.949C55.1096 189.319 52.1096 180.875 50.6725 170.171C49.2651 159.719 49.2651 146.319 49.2651 129.215V128.371C49.2651 111.267 49.2651 97.8673 50.6725 87.408C52.1096 76.7117 55.117 68.2673 61.7392 61.6376C68.3688 55.008 76.8133 52.008 87.517 50.571C97.9688 49.1636 111.369 49.1636 128.473 49.1636ZM88.9911 61.5784C79.5244 62.8525 73.8133 65.2821 69.5985 69.4969C65.3762 73.7191 62.954 79.4228 61.68 88.8969C60.3911 98.5265 60.3762 111.178 60.3762 128.793C60.3762 146.408 60.3911 159.06 61.68 168.69C62.954 178.164 65.3837 183.875 69.5985 188.097C73.8207 192.312 79.5244 194.734 88.9985 196.008C98.6281 197.297 111.28 197.312 128.895 197.312C146.51 197.312 159.161 197.297 168.791 196.008C178.265 194.734 183.976 192.304 188.198 188.09C192.413 183.867 194.836 178.164 196.11 168.69C197.398 159.06 197.413 146.408 197.413 128.793C197.413 111.178 197.398 98.5265 196.11 88.8969C194.836 79.4228 192.406 73.7117 188.191 69.4895C183.969 65.2747 178.265 62.8525 168.791 61.5784C159.161 60.2895 146.51 60.2747 128.895 60.2747C111.28 60.2747 98.6207 60.2895 88.9911 61.5784ZM125.413 102.645C126.454 103.687 127.038 105.099 127.038 106.571C127.038 108.043 126.454 109.455 125.413 110.497L112.673 123.238H158.524C159.998 123.238 161.411 123.823 162.453 124.865C163.495 125.907 164.08 127.32 164.08 128.793C164.08 130.267 163.495 131.68 162.453 132.722C161.411 133.763 159.998 134.349 158.524 134.349H112.673L125.413 147.09C125.959 147.598 126.397 148.211 126.701 148.893C127.004 149.574 127.167 150.31 127.181 151.056C127.194 151.802 127.057 152.543 126.777 153.235C126.498 153.926 126.082 154.555 125.554 155.082C125.027 155.61 124.398 156.026 123.707 156.305C123.015 156.585 122.274 156.722 121.528 156.709C120.782 156.696 120.046 156.532 119.365 156.229C118.683 155.925 118.07 155.487 117.561 154.941L95.3392 132.719C94.2988 131.677 93.7145 130.265 93.7145 128.793C93.7145 127.321 94.2988 125.909 95.3392 124.867L117.561 102.645C118.603 101.605 120.015 101.02 121.487 101.02C122.96 101.02 124.372 101.605 125.413 102.645Z" fill="#272727"/>
</svg>