<svg width="256" height="257" viewBox="0 0 256 257" fill="none" xmlns="http://www.w3.org/2000/svg">
<path fill-rule="evenodd" clip-rule="evenodd" d="M127.578 49.2649H128.422C145.526 49.2649 158.926 49.2649 169.385 50.6723C180.082 52.1093 188.526 55.1167 195.156 61.739C201.785 68.3686 204.785 76.813 206.222 87.5168C207.63 97.9686 207.63 111.369 207.63 128.472V129.317C207.63 146.42 207.63 159.82 206.222 170.28C204.785 180.976 201.778 189.42 195.156 196.05C188.526 202.68 180.082 205.68 169.378 207.117C158.926 208.524 145.526 208.524 128.422 208.524H127.578C110.474 208.524 97.0743 208.524 86.6151 207.117C75.9188 205.68 67.4743 202.672 60.8447 196.05C54.2151 189.42 51.2151 180.976 49.778 170.272C48.3706 159.82 48.3706 146.42 48.3706 129.317V128.472C48.3706 111.369 48.3706 97.9686 49.778 87.5093C51.2151 76.813 54.2225 68.3686 60.8447 61.739C67.4743 55.1093 75.9188 52.1093 86.6225 50.6723C97.0743 49.2649 110.474 49.2649 127.578 49.2649ZM88.0965 61.6797C78.6299 62.9538 72.9188 65.3834 68.7039 69.5982C64.4817 73.8204 62.0595 79.5242 60.7854 88.9982C59.4965 98.6279 59.4817 111.28 59.4817 128.895C59.4817 146.509 59.4965 159.161 60.7854 168.791C62.0595 178.265 64.4891 183.976 68.7039 188.198C72.9262 192.413 78.6299 194.835 88.1039 196.109C97.7336 197.398 110.385 197.413 128 197.413C145.615 197.413 158.267 197.398 167.897 196.109C177.371 194.835 183.082 192.406 187.304 188.191C191.519 183.969 193.941 178.265 195.215 168.791C196.504 159.161 196.519 146.509 196.519 128.895C196.519 111.28 196.504 98.6279 195.215 88.9982C193.941 79.5242 191.511 73.813 187.297 69.5908C183.074 65.376 177.371 62.9538 167.897 61.6797C158.267 60.3908 145.615 60.376 128 60.376C110.385 60.376 97.7262 60.3908 88.0965 61.6797ZM124.519 102.746C125.559 103.788 126.144 105.2 126.144 106.672C126.144 108.145 125.559 109.557 124.519 110.598L111.778 123.339H157.63C159.103 123.339 160.516 123.924 161.558 124.966C162.6 126.008 163.185 127.421 163.185 128.895C163.185 130.368 162.6 131.781 161.558 132.823C160.516 133.865 159.103 134.45 157.63 134.45H111.778L124.519 147.191C125.065 147.699 125.502 148.313 125.806 148.994C126.11 149.676 126.273 150.411 126.286 151.157C126.299 151.903 126.162 152.644 125.883 153.336C125.603 154.028 125.187 154.656 124.66 155.184C124.132 155.711 123.504 156.127 122.812 156.407C122.12 156.686 121.379 156.823 120.633 156.81C119.887 156.797 119.152 156.634 118.47 156.33C117.789 156.026 117.176 155.589 116.667 155.043L94.4447 132.82C93.4043 131.779 92.8199 130.367 92.8199 128.895C92.8199 127.422 93.4043 126.01 94.4447 124.969L116.667 102.746C117.709 101.706 119.121 101.122 120.593 101.122C122.065 101.122 123.477 101.706 124.519 102.746Z" fill="white"/>
</svg>