<svg width="64" height="64" viewBox="0 0 64 64" fill="none" xmlns="http://www.w3.org/2000/svg">
<path d="M15.198 39.4118L19.3973 31.3942C19.8538 30.4988 20.5482 29.7429 21.4063 29.2072C22.2643 28.6715 23.2536 28.3763 24.2684 28.353H54.3912M54.3912 28.353C55.2465 28.3516 56.0908 28.5436 56.8593 28.9145C57.6278 29.2854 58.3 29.8252 58.8244 30.4925C59.3488 31.1599 59.7114 31.937 59.8843 32.7642C60.0573 33.5915 60.036 34.4469 59.8222 35.2648L55.511 51.8529C55.199 53.046 54.4925 54.102 53.5035 54.8533C52.5145 55.6047 51.2997 56.0082 50.0519 55.9999H9.59902C8.11407 55.9999 6.68993 55.4173 5.63991 54.3804C4.58989 53.3434 4 51.937 4 50.4705V14.5296C4 13.0632 4.58989 11.6567 5.63991 10.6198C6.68993 9.58282 8.11407 9.00027 9.59902 9.00027H20.5171C21.4535 8.9912 22.3772 9.21422 23.2038 9.64892C24.0303 10.0836 24.7333 10.7161 25.2483 11.4885L27.5159 14.8061C28.0257 15.5706 28.7197 16.1982 29.5357 16.6325C30.3517 17.0667 31.2641 17.2942 32.1911 17.2943H48.7921C50.2771 17.2943 51.7012 17.8769 52.7512 18.9138C53.8013 19.9508 54.3912 21.3572 54.3912 22.8237V28.353Z" stroke="#9C9C9C" stroke-width="5.02097" stroke-linecap="round" stroke-linejoin="round"/>
</svg>