<svg width="256" height="256" viewBox="0 0 256 256" fill="none" xmlns="http://www.w3.org/2000/svg">
<path d="M89.7781 140.74L99.3337 122.266C100.372 120.203 101.953 118.461 103.905 117.227C105.858 115.993 108.109 115.312 110.418 115.259H178.963M178.963 115.259C180.91 115.255 182.831 115.698 184.58 116.552C186.328 117.407 187.858 118.651 189.051 120.189C190.244 121.726 191.07 123.517 191.463 125.423C191.857 127.329 191.808 129.3 191.322 131.185L181.511 169.407C180.802 172.156 179.194 174.589 176.943 176.321C174.693 178.052 171.929 178.982 169.089 178.962H77.0374C73.6583 178.962 70.4177 177.62 68.0283 175.231C65.639 172.841 64.2966 169.601 64.2966 166.222V83.4069C64.2966 80.0278 65.639 76.7872 68.0283 74.3978C70.4177 72.0085 73.6583 70.6661 77.0374 70.6661H101.882C104.013 70.6452 106.115 71.1591 107.995 72.1608C109.876 73.1624 111.476 74.6197 112.648 76.3995L117.808 84.0439C118.968 85.8055 120.547 87.2515 122.404 88.2522C124.261 89.2529 126.337 89.7769 128.446 89.7773H166.223C169.602 89.7773 172.842 91.1196 175.232 93.5089C177.621 95.8983 178.963 99.1389 178.963 102.518V115.259Z" stroke="white" stroke-width="12.7258" stroke-linecap="round" stroke-linejoin="round"/>
</svg>