<svg width="64" height="64" viewBox="0 0 64 64" fill="none" xmlns="http://www.w3.org/2000/svg">
<path fill-rule="evenodd" clip-rule="evenodd" d="M31.6511 4H31.3489C25.2273 4 20.4314 4 16.688 4.50372C12.8597 5.01805 9.83735 6.09442 7.46456 8.46456C5.09177 10.8373 4.01805 13.8597 3.50372 17.6906C3 21.4314 3 26.2273 3 32.3489V32.6511C3 38.7727 3 43.5686 3.50372 47.312C4.01805 51.1403 5.09442 54.1627 7.46456 56.5354C9.83735 58.9082 12.8597 59.982 16.6906 60.4963C20.4314 61 25.2273 61 31.3489 61H31.6511C37.7727 61 42.5686 61 46.312 60.4963C50.1403 59.982 53.1627 58.9056 55.5354 56.5354C57.9082 54.1627 58.982 51.1403 59.4963 47.3094C60 43.5686 60 38.7727 60 32.6511V32.3489C60 26.2273 60 21.4314 59.4963 17.688C58.982 13.8597 57.9056 10.8373 55.5354 8.46456C53.1627 6.09177 50.1403 5.01805 46.3094 4.50372C42.5686 4 37.7727 4 31.6511 4ZM45.7818 8.44335C49.17 8.89935 51.214 9.76893 52.7226 11.2774C54.2337 12.7886 55.1007 14.83 55.5567 18.2208C56.018 21.6673 56.0233 26.1955 56.0233 32.5C56.0233 38.8045 56.018 43.3327 55.5567 46.7792C55.1007 50.17 54.2311 52.2141 52.7226 53.7252C51.2114 55.2337 49.17 56.1007 45.7792 56.5567C42.3327 57.018 37.8045 57.0233 31.5 57.0233C25.1955 57.0233 20.6673 57.018 17.2208 56.5567C13.83 56.1007 11.7859 55.2311 10.2748 53.7226C8.76628 52.2114 7.89935 50.17 7.44335 46.7792C6.98205 43.3327 6.97674 38.8045 6.97674 32.5C6.97674 26.1955 6.98205 21.6673 7.44335 18.2208C7.89935 14.83 8.76893 12.786 10.2774 11.2748C11.7886 9.76628 13.83 8.89935 17.2208 8.44335C20.6673 7.98205 25.1955 7.97674 31.5 7.97674C37.8045 7.97674 42.3353 7.98205 45.7818 8.44335ZM32.746 23.1414C32.3737 23.5142 32.1645 24.0196 32.1645 24.5465C32.1645 25.0734 32.3737 25.5788 32.746 25.9516L37.306 30.5116H20.8953C20.368 30.5116 19.8622 30.7211 19.4894 31.094C19.1165 31.4669 18.907 31.9727 18.907 32.5C18.907 33.0273 19.1165 33.5331 19.4894 33.906C19.8622 34.2789 20.368 34.4884 20.8953 34.4884H37.306L32.746 39.0484C32.5507 39.2304 32.394 39.4499 32.2853 39.6938C32.1766 39.9377 32.1182 40.201 32.1135 40.468C32.1088 40.735 32.1579 41.0002 32.2579 41.2478C32.3579 41.4954 32.5068 41.7203 32.6956 41.9091C32.8844 42.0979 33.1093 42.2467 33.3569 42.3467C33.6045 42.4468 33.8697 42.4959 34.1366 42.4911C34.4036 42.4864 34.6669 42.428 34.9108 42.3193C35.1547 42.2107 35.3742 42.054 35.5563 41.8586L43.5098 33.9051C43.8821 33.5323 44.0913 33.0269 44.0913 32.5C44.0913 31.9731 43.8821 31.4677 43.5098 31.0949L35.5563 23.1414C35.1835 22.769 34.6781 22.5599 34.1512 22.5599C33.6242 22.5599 33.1189 22.769 32.746 23.1414Z" fill="#9C9C9C"/>
</svg>