<svg width="257" height="257" viewBox="0 0 257 257" fill="none" xmlns="http://www.w3.org/2000/svg">
<path fill-rule="evenodd" clip-rule="evenodd" d="M129.107 49.1636H128.262C111.159 49.1636 97.7588 49.1636 87.2995 50.571C76.6032 52.008 68.1588 55.0154 61.5291 61.6376C54.8995 68.2673 51.8995 76.7117 50.4625 87.4154C49.0551 97.8673 49.0551 111.267 49.0551 128.371V129.215C49.0551 146.319 49.0551 159.719 50.4625 170.178C51.8995 180.875 54.9069 189.319 61.5291 195.949C68.1588 202.578 76.6032 205.578 87.3069 207.015C97.7588 208.423 111.159 208.423 128.262 208.423H129.107C146.211 208.423 159.611 208.423 170.07 207.015C180.766 205.578 189.211 202.571 195.84 195.949C202.47 189.319 205.47 180.875 206.907 170.171C208.314 159.719 208.314 146.319 208.314 129.215V128.371C208.314 111.267 208.314 97.8673 206.907 87.408C205.47 76.7117 202.462 68.2673 195.84 61.6376C189.211 55.008 180.766 52.008 170.062 50.571C159.611 49.1636 146.211 49.1636 129.107 49.1636ZM168.588 61.5784C178.055 62.8525 183.766 65.2821 187.981 69.4969C192.203 73.7191 194.625 79.4228 195.9 88.8969C197.188 98.5265 197.203 111.178 197.203 128.793C197.203 146.408 197.188 159.06 195.9 168.69C194.625 178.164 192.196 183.875 187.981 188.097C183.759 192.312 178.055 194.734 168.581 196.008C158.951 197.297 146.3 197.312 128.685 197.312C111.07 197.312 98.418 197.297 88.7884 196.008C79.3143 194.734 73.6032 192.304 69.381 188.09C65.1662 183.867 62.7439 178.164 61.4699 168.69C60.181 159.06 60.1662 146.408 60.1662 128.793C60.1662 111.178 60.181 98.5265 61.4699 88.8969C62.7439 79.4228 65.1736 73.7117 69.3884 69.4895C73.6106 65.2747 79.3143 62.8525 88.7884 61.5784C98.418 60.2895 111.07 60.2747 128.685 60.2747C146.3 60.2747 158.959 60.2895 168.588 61.5784ZM132.166 102.645C131.126 103.687 130.541 105.099 130.541 106.571C130.541 108.043 131.126 109.455 132.166 110.497L144.907 123.238H99.0551C97.5816 123.238 96.1686 123.823 95.1267 124.865C94.0848 125.907 93.4995 127.32 93.4995 128.793C93.4995 130.267 94.0848 131.68 95.1267 132.722C96.1686 133.763 97.5816 134.349 99.0551 134.349H144.907L132.166 147.09C131.62 147.598 131.183 148.211 130.879 148.893C130.575 149.574 130.412 150.31 130.399 151.056C130.386 151.802 130.523 152.543 130.802 153.235C131.082 153.926 131.498 154.555 132.025 155.082C132.553 155.61 133.181 156.026 133.873 156.305C134.565 156.585 135.306 156.722 136.052 156.709C136.797 156.696 137.533 156.532 138.215 156.229C138.896 155.925 139.509 155.487 140.018 154.941L162.24 132.719C163.281 131.677 163.865 130.265 163.865 128.793C163.865 127.321 163.281 125.909 162.24 124.867L140.018 102.645C138.976 101.605 137.564 101.02 136.092 101.02C134.62 101.02 133.208 101.605 132.166 102.645Z" fill="#272727"/>
</svg>