<svg width="257" height="257" viewBox="0 0 257 257" fill="none" xmlns="http://www.w3.org/2000/svg">
<path fill-rule="evenodd" clip-rule="evenodd" d="M129.212 49.1636H128.367C111.264 49.1636 97.8637 49.1636 87.4045 50.571C76.7082 52.008 68.2637 55.0154 61.6341 61.6376C55.0045 68.2673 52.0045 76.7117 50.5674 87.4154C49.16 97.8673 49.16 111.267 49.16 128.371V129.215C49.16 146.319 49.16 159.719 50.5674 170.178C52.0045 180.875 55.0119 189.319 61.6341 195.949C68.2637 202.578 76.7082 205.578 87.4119 207.015C97.8637 208.423 111.264 208.423 128.367 208.423H129.212C146.316 208.423 159.716 208.423 170.175 207.015C180.871 205.578 189.316 202.571 195.945 195.949C202.575 189.319 205.575 180.875 207.012 170.171C208.419 159.719 208.419 146.319 208.419 129.215V128.371C208.419 111.267 208.419 97.8673 207.012 87.408C205.575 76.7117 202.567 68.2673 195.945 61.6376C189.316 55.008 180.871 52.008 170.167 50.571C159.716 49.1636 146.316 49.1636 129.212 49.1636ZM168.693 61.5784C178.16 62.8525 183.871 65.2821 188.086 69.4969C192.308 73.7191 194.73 79.4228 196.004 88.8969C197.293 98.5265 197.308 111.178 197.308 128.793C197.308 146.408 197.293 159.06 196.004 168.69C194.73 178.164 192.301 183.875 188.086 188.097C183.864 192.312 178.16 194.734 168.686 196.008C159.056 197.297 146.404 197.312 128.79 197.312C111.175 197.312 98.523 197.297 88.8934 196.008C79.4193 194.734 73.7082 192.304 69.486 188.09C65.2711 183.867 62.8489 178.164 61.5749 168.69C60.286 159.06 60.2711 146.408 60.2711 128.793C60.2711 111.178 60.286 98.5265 61.5749 88.8969C62.8489 79.4228 65.2786 73.7117 69.4934 69.4895C73.7156 65.2747 79.4193 62.8525 88.8934 61.5784C98.523 60.2895 111.175 60.2747 128.79 60.2747C146.404 60.2747 159.064 60.2895 168.693 61.5784ZM132.271 102.645C131.231 103.687 130.646 105.099 130.646 106.571C130.646 108.043 131.231 109.455 132.271 110.497L145.012 123.238H99.16C97.6866 123.238 96.2735 123.823 95.2317 124.865C94.1898 125.907 93.6045 127.32 93.6045 128.793C93.6045 130.267 94.1898 131.68 95.2317 132.722C96.2735 133.763 97.6866 134.349 99.16 134.349H145.012L132.271 147.09C131.725 147.598 131.288 148.211 130.984 148.893C130.68 149.574 130.517 150.31 130.504 151.056C130.491 151.802 130.628 152.543 130.907 153.235C131.187 153.926 131.603 154.555 132.13 155.082C132.658 155.61 133.286 156.026 133.978 156.305C134.67 156.585 135.411 156.722 136.157 156.709C136.902 156.696 137.638 156.532 138.32 156.229C139.001 155.925 139.614 155.487 140.123 154.941L162.345 132.719C163.386 131.677 163.97 130.265 163.97 128.793C163.97 127.321 163.386 125.909 162.345 124.867L140.123 102.645C139.081 101.605 137.669 101.02 136.197 101.02C134.725 101.02 133.313 101.605 132.271 102.645Z" fill="white"/>
</svg>